<?xml version="1.0" encoding="UTF-8"?>
<svg id="Camada_1" data-name="Camada 1" xmlns="http://www.w3.org/2000/svg" xmlns:xlink="http://www.w3.org/1999/xlink" viewBox="0 0 1714.26 509.43">
  <defs>
    <style>
      .cls-1 {
        fill: url(#Gradiente_sem_nome_11);
      }

      .cls-2 {
        fill: #fff;
      }

      .cls-3 {
        fill: url(#Gradiente_sem_nome_11-2);
      }
    </style>
    <linearGradient id="Gradiente_sem_nome_11" data-name="Gradiente sem nome 11" x1="66.08" y1="254.72" x2="429.04" y2="254.72" gradientUnits="userSpaceOnUse">
      <stop offset="0" stop-color="#4cf35e"/>
      <stop offset="1" stop-color="#a1fd99"/>
    </linearGradient>
    <linearGradient id="Gradiente_sem_nome_11-2" data-name="Gradiente sem nome 11" x1="1233.74" y1="254.72" x2="1648.19" y2="254.72" xlink:href="#Gradiente_sem_nome_11"/>
  </defs>
  <g>
    <path class="cls-1" d="M409.73,193.59c26.42-16.99,25.58-55.89-1.55-71.72L199.26,0v162.98l137.84,77.3,72.63-46.69ZM408.17,311.36l-208.92-121.87-133.18,81.52,271.02,158.76,72.63-46.69c26.42-16.99,25.58-55.89-1.55-71.72ZM199.26,509.43l114.89-66.59-114.89-66.59v133.18Z"/>
    <path class="cls-2" d="M686.72,349.53v-189.63h133.83v23.57h-106.74v142.5h110.53v23.57h-137.62ZM711.37,264.74v-23.02h97.53v23.02h-97.53Z"/>
    <path class="cls-2" d="M807,349.53l85.88-189.63h26.82l86.15,189.63h-28.44l-76.67-174.47h10.84l-76.67,174.47h-27.9ZM843.57,302.13l7.31-21.67h69.91l9.27,21.67h-86.49Z"/>
    <path class="cls-2" d="M1001.51,349.53v-189.63h22.22l85.07,143.31h-11.92l83.98-143.31h22.22l.27,189.63h-26.01l-.27-148.73h6.23l-74.77,125.7h-12.46l-75.31-125.7h6.77v148.73h-26.01Z"/>
    <path class="cls-2" d="M669.92,271.1c-4.88-7.31-11.47-12.86-19.77-16.66-2.77-1.26-5.74-2.24-8.79-3.08.13-.06.27-.1.39-.17,7.76-3.8,13.95-9.21,18.56-16.26,4.61-7.04,6.91-15.71,6.91-26.01,0-15.17-5.87-27.13-17.61-35.89-11.74-8.76-28.54-13.14-50.39-13.14h-85.07v21.94h82.63c13.72,0,24.38,2.54,31.97,7.59,7.59,5.06,11.38,12.65,11.38,22.76s-3.79,17.7-11.38,22.75c-7.58,5.06-18.24,7.59-31.97,7.59h-82.63v21.94h89.4c14.99,0,26.46,2.53,34.41,7.59,7.94,5.06,11.92,13.1,11.92,24.11s-3.98,18.78-11.92,23.84c-7.95,5.06-19.42,7.59-34.41,7.59h-89.4v21.94h90.48c24.02,0,42.13-4.47,54.32-13.41,12.19-8.94,18.29-21.54,18.29-37.8,0-10.83-2.44-19.91-7.31-27.23Z"/>
  </g>
  <path class="cls-3" d="M1349.41,256.73c-10.56-9.36-26.27-14.23-47.02-14.7l56.43-72.44v-9.69h-125.08v12.37h107.41l-55.77,71.28v9.95h11.84c18.83,0,32.68,3.82,41.55,11.44,8.89,7.62,13.31,17.71,13.31,30.26s-4.42,22.85-13.31,30.39c-8.87,7.53-21.74,11.3-38.59,11.3-12.91,0-24.6-2.2-35.11-6.59-10.49-4.4-18.61-9.9-24.34-16.55l-6.98,10.5c6.63,7.53,15.91,13.63,27.84,18.29,11.91,4.66,24.78,6.99,38.59,6.99,14.51,0,26.66-2.33,36.45-6.99,9.76-4.66,17.12-11.12,22.06-19.37,4.93-8.24,7.38-17.57,7.38-27.96,0-15.78-5.56-28.61-16.66-38.47ZM1475.26,244.43c-9.35-4.54-20.26-6.8-32.73-6.8-10.67,0-20.47,1.91-29.36,5.74-8.91,3.83-16.21,9.39-21.91,16.69-3.68,4.72-6.33,10.13-8.15,16.1-.36-2.28-.74-4.57-.94-6.89-.52-6.32-.78-11.53-.78-15.63,0-27.25,6.3-47.68,18.95-61.29,12.65-13.62,29.47-20.43,50.47-20.43,7.13,0,13.85.66,20.17,2,6.32,1.34,11.89,3.52,16.69,6.54l5.61-10.94c-5.69-3.56-12.19-6.05-19.5-7.48-7.3-1.42-14.95-2.14-22.97-2.14-16.54,0-31.06,3.61-43.54,10.81-12.45,7.22-22.15,17.9-29.1,32.05-6.93,14.16-10.41,31.83-10.41,53.02,0,19.41,2.85,36.15,8.54,50.21,5.69,14.06,14.11,24.84,25.23,32.32,11.13,7.48,24.89,11.22,41.28,11.22,11.93,0,22.56-2.31,31.91-6.94,9.35-4.63,16.74-11.17,22.17-19.63,5.43-8.45,8.15-18.39,8.15-29.79s-2.63-21.01-7.89-29.38c-5.24-8.37-12.54-14.82-21.89-19.37ZM1485.13,316.81c-4.17,6.68-9.91,11.85-17.21,15.5-7.3,3.65-15.85,5.48-25.65,5.48-11.56,0-21.32-2.14-29.23-6.41-7.93-4.28-13.93-9.75-18.04-16.43-4.09-6.67-6.13-13.66-6.13-20.96,0-8.37,2.17-15.93,6.54-22.7,4.35-6.76,10.45-12.11,18.28-16.02,7.85-3.92,16.85-5.88,26.97-5.88,15.85,0,28.28,4.01,37.28,12.02,8.98,8.01,13.48,18.69,13.48,32.05,0,8.9-2.09,16.69-6.28,23.37ZM1638.84,204.1c-6.24-14.15-14.82-25.06-25.78-32.71-10.95-7.66-23.65-11.49-38.06-11.49s-26.89,3.83-37.93,11.49c-11.04,7.65-19.67,18.56-25.91,32.71-6.24,14.16-9.35,31.03-9.35,50.61s3.11,36.46,9.35,50.62c6.24,14.15,14.87,25.06,25.91,32.71,11.04,7.66,23.67,11.49,37.93,11.49s27.1-3.83,38.06-11.49c10.95-7.65,19.54-18.56,25.78-32.71,6.22-14.16,9.35-31.03,9.35-50.62s-3.13-36.45-9.35-50.61ZM1627.08,299.05c-5,12.29-11.93,21.68-20.84,28.18-8.89,6.5-19.32,9.75-31.23,9.75s-22.13-3.25-31.13-9.75c-9-6.5-15.98-15.89-20.95-28.18-5-12.28-7.48-27.06-7.48-44.34s2.48-32.27,7.48-44.47c4.98-12.19,11.95-21.54,20.95-28.04,9-6.5,19.37-9.75,31.13-9.75s22.34,3.25,31.23,9.75c8.91,6.5,15.85,15.85,20.84,28.04,4.98,12.2,7.48,27.03,7.48,44.47s-2.5,32.06-7.48,44.34Z"/>
</svg>